<svg xmlns="http://www.w3.org/2000/svg" style="display: none;">
  <!-- Logo -->
  <symbol id="logo" viewBox="0 0 255 182">
    <line x1="5" y1="-5" x2="123" y2="-5"
      transform="matrix(-0.707107 -0.707107 -0.707107 0.707107 90.7126 181.713)"
      stroke="#10B981" stroke-width="10" stroke-linecap="round" />

    <line x1="5" y1="-5" x2="123" y2="-5"
      transform="matrix(0.707107 -0.707107 -0.707107 -0.707107 0 90.5097)"
      stroke="#6EE7B7" stroke-width="10" stroke-linecap="round" />

    <line x1="247.354" y1="90.5097" x2="163.916" y2="7.07107"
      stroke="#10B981" stroke-width="10" stroke-linecap="round" />

    <line x1="163.713" y1="174.642" x2="247.151" y2="91.203"
      stroke="#6EE7B7" stroke-width="10" stroke-linecap="round" />

    <path
      d="M127.213 41C144.865 41 159.941 54.2802 165.939 73H154.33C149.111 61.1061 138.741 53 126.798 53C109.608 53 95.6726 69.7893 95.6726 90.5C95.6726 111.211 109.608 128 126.798 128C140.037 128 151.343 118.04 155.841 104H127.213V91H168.713C168.713 118.614 150.132 141 127.213 141C104.293 141 85.7126 118.614 85.7126 91C85.7126 63.3858 104.293 41 127.213 41Z"
      fill="#6EE7B7" />

    <path
      d="M168.713 91C168.713 118.614 150.132 141 127.213 141C113.967 141 102.171 133.524 94.573 121.883L102.509 113.947C108.213 122.514 116.973 128 126.798 128C140.037 128 151.343 118.04 155.841 104H127.213V91H168.713ZM158.416 58.041C161.603 62.4187 164.168 67.4716 165.939 73H154.33C153.235 70.5056 151.914 68.178 150.399 66.0566L158.416 58.041Z"
      fill="#10B981" />
  </symbol>
  <!-- Mail -->
  <symbol
    id="mail"
    viewBox="0 0 24 24"
    fill="none"
    stroke="currentColor"
    stroke-width="2"
    stroke-linecap="round"
    stroke-linejoin="round"
  >
    <path stroke="none" d="M0 0h24v24H0z" fill="none" />
    <path d="M3 7a2 2 0 0 1 2 -2h14a2 2 0 0 1 2 2v10a2 2 0 0 1 -2 2h-14a2 2 0 0 1 -2 -2v-10" />
    <path d="M3 7l9 6l9 -6" />
  </symbol>
  <!-- Download -->
  <symbol
    id="download"
    viewBox="0 0 24 24"
    fill="none"
    stroke="currentColor"
    stroke-width="2"
    stroke-linecap="round"
    stroke-linejoin="round"
  >
    <path stroke="none" d="M0 0h24v24H0z" fill="none" />
    <path d="M4 17v2a2 2 0 0 0 2 2h12a2 2 0 0 0 2 -2v-2" />
    <path d="M7 11l5 5l5 -5" />
    <path d="M12 4l0 12" />
  </symbol>
  <!-- Briefcase -->
  <symbol
    id="briefcase"
    viewBox="0 0 24 24"
    fill="none"
    stroke="currentColor"
    stroke-width="2"
    stroke-linecap="round"
    stroke-linejoin="round"
  >
    <path stroke="none" d="M0 0h24v24H0z" fill="none" />
    <path d="M3 9a2 2 0 0 1 2 -2h14a2 2 0 0 1 2 2v9a2 2 0 0 1 -2 2h-14a2 2 0 0 1 -2 -2l0 -9" />
    <path d="M8 7v-2a2 2 0 0 1 2 -2h4a2 2 0 0 1 2 2v2" />
    <path d="M12 12l0 .01" />
    <path d="M3 13a20 20 0 0 0 18 0" />
  </symbol>
  <symbol
    id="link"
    viewBox="0 0 24 24"
    fill="none"
    stroke="currentColor"
    stroke-width="2"
    stroke-linecap="round"
    stroke-linejoin="round"
  >
    <path stroke="none" d="M0 0h24v24H0z" fill="none" />
    <path d="M17 7l-10 10" />
    <path d="M8 7l9 0l0 9" />
  </symbol>
  <!-- Angular -->
  <symbol id="angular" viewBox="0 0 242 256" fill="none">
    <g clip-path="url(#angular__a)">
      <mask id="angular__b" width="242" height="256" x="0" y="0" maskUnits="userSpaceOnUse"
        style="mask-type:luminance">
        <path fill="#fff" d="M0 0h242v256H0V0Z" />
      </mask>
      <g mask="url(#angular__b)">
        <path fill="url(#angular__c)"
          d="m241 43-9 136L149 0l92 43Zm-58 176-62 36-63-36 12-31h101l12 31ZM121 68l32 80H88l33-80ZM9 179 0 43 92 0 9 179Z" />
        <path fill="url(#angular__d)"
          d="m241 43-9 136L149 0l92 43Zm-58 176-62 36-63-36 12-31h101l12 31ZM121 68l32 80H88l33-80ZM9 179 0 43 92 0 9 179Z" />
      </g>
    </g>

    <defs>
      <linearGradient id="angular__c" x1="53.2" x2="245" y1="231.9" y2="140.7"
        gradientUnits="userSpaceOnUse">
        <stop stop-color="#E40035" />
        <stop offset=".2" stop-color="#F60A48" />
        <stop offset=".4" stop-color="#F20755" />
        <stop offset=".5" stop-color="#DC087D" />
        <stop offset=".7" stop-color="#9717E7" />
        <stop offset="1" stop-color="#6C00F5" />
      </linearGradient>

      <linearGradient id="angular__d" x1="44.5" x2="170" y1="30.7" y2="174"
        gradientUnits="userSpaceOnUse">
        <stop stop-color="#FF31D9" />
        <stop offset="1" stop-color="#FF5BE1" stop-opacity="0" />
      </linearGradient>

      <clipPath id="angular__a">
        <path fill="#fff" d="M0 0h242v256H0z" />
      </clipPath>
    </defs>
  </symbol>
  <!-- NgRx -->
  <symbol id="ngrx" viewBox="0 0 885 936">
    <defs>
      <radialGradient id="logoGradientA" cx="0" cy="0" r="1"
        gradientTransform="matrix(0 507.22601 -479.57501 0 442.9857483 427.93551636)"
        gradientUnits="userSpaceOnUse">
        <stop stop-color="#aa1bb6" />
        <stop offset="1" stop-color="#452070" />
      </radialGradient>

      <radialGradient id="logoGradientB" cx="0" cy="0" r="1"
        gradientTransform="matrix(314.00042 156.99986 -140.10327 280.20717 441.99906213 454.49818724)"
        gradientUnits="userSpaceOnUse">
        <stop offset=".271" stop-color="#b1219b" />
        <stop offset="1" stop-color="#5306A1" />
      </radialGradient>
    </defs>

    <path fill="url(#logoGradientA)"
      d="m884.66201 156.28199-31.932 501.024-305.308-656.962 337.24 155.938zm-211.467 647.85-230.693 131.524-230.697-131.524 13.041-76.656h435.323l13.026 76.656zm-641.251-146.826-31.606-501.024 337.241-155.938-305.635 656.962z" />

    <path fill="url(#logoGradientB)" fill-rule="evenodd"
      d="m659.088 405.822-.031.223c-13.501 78.671-65.716 128.406-156.643 149.205 22.487 15.76 48.746 20.03 79.148 12.887-56.769 21.049-106.851 21.829-150.384 2.523 7.658 27.109 25.618 46.663 54.154 58.958-70.729-15.187-117.11-64.163-139.041-146.887-11.197 14.777-10.349 39.417 2.493 74.327-38.297-46.361-45.439-95.099-21.274-146.093 25.329-56.047 71.337-78.504 138.048-67.36 90.561 99.362 148.945 128.377 174.887 86.93 11.35-35.449-.319-79.058-35.081-130.67-24.962-35.259-54.36-59.988-87.947-73.794-6.876-19.519-19.109-33.187-36.275-40.34-11.959-5.576-23.016-6.665-32.698-2.725a289.18 289.18 0 0 0-4.702 1.982c-15.414 6.6-41.02 17.563-69.535 6.735-21.099-8.012-35.908-2.875-44.427 15.409-8.392 18.749-14.014 28.93-16.866 30.543-4.339 3.381-13.568 6.907-27.607 10.527-14.038 3.621-22.843 9.208-26.415 16.76-6.589 16.007-8.976 28.923-7.161 38.75-3.162 12.193-8.249 20.425-15.249 24.508a209.757 209.757 0 0 1-4.642 2.614c-7.335 4.046-11.006 6.07-12.845 14.71l-.15.703c-2.081 9.731-2.77 12.95 7.243 45.395-6.537 48.122 1.4 94.478 23.804 138.875-.028-.054 31.324 78.254 117.58 119.073 91.362 37.777 172.706 24.386 244.032-40.173-42.258 8.519-73.359 9.106-93.16 1.885 75.314-5.495 124.594-42.218 148.117-110.123-31.32 24.184-55.572 38.283-72.593 42.079 29.159-18.58 49.105-40.006 59.984-64.115 10.88-24.108 12.625-48.549 5.236-73.321zm-114.963-99.895c-6.88 8.884-16.024 29.56 2.436 41.192 18.46 11.633 10.235-2.928 3.815-11.663-6.42-8.734-6.251-29.529-6.251-29.529z"
      clip-rule="evenodd" />
  </symbol>
  <!-- Spring -->
  <symbol id="spring" viewBox="0 0 64 64">
    <path
      d="M58.2 3.365a29.503 29.503 0 0 1-3.419 6.064A32.094 32.094 1 0 0 9.965 55.372l1.186 1.047a32.08 32.08 0 0 0 52.67-22.253c.875-8.17-1.524-18.51-5.62-30.8zM14.53 55.558a2.744 2.744 0 1 1-.404-3.857 2.744 2.744 0 0 1 .404 3.857zm43.538-9.61c-7.92 10.55-24.83 6.99-35.672 7.502 0 0-1.922.113-3.857.43 0 0 .73-.31 1.663-.663 7.614-2.65 11.213-3.16 15.838-5.54 8.708-4.427 17.322-14.122 19.112-24.2-3.313 9.695-13.373 18.032-22.53 21.418-6.276 2.313-17.614 4.566-17.614 4.566l-.457-.245c-7.714-3.75-7.952-20.457 6.077-25.845 6.143-2.366 12.02-1.067 18.654-2.65 7.084-1.683 15.28-6.99 18.615-13.916 3.73 11.08 8.224 28.422.166 39.15z"
      fill="#68bd45"
    />
  </symbol>
  <!-- MySQL -->
  <symbol id="mysql" viewBox="0 0 256 252" preserveAspectRatio="xMidYMid">
    <path fill="#FFF"
      d="M236 194c-14 0-25 1-34 5-3 1-7 1-7 4l3 6c2 3 5 8 9 11l11 8 21 10 11 9 6 4-3-6-5-5c-5-7-11-13-18-18-6-3-18-9-20-15h-1l12-3 18-3 8-2v-2l-9-10c-8-8-18-15-28-22l-18-8c-2-1-6-2-7-4l-7-13-15-30-8-20c-18-30-38-48-68-65-6-4-14-5-22-7l-13-1-8-6C34 5 8-9 1 9c-5 11 7 22 11 28l9 13 3 9c3 8 5 17 9 24l6 10c2 2 4 3 5 6-3 4-3 9-4 13-7 20-4 44 5 59 2 4 9 14 18 10 8-3 6-13 8-22l1-4 8 14c5 9 14 18 22 24 4 3 8 8 13 10l-4-4-9-10c-8-10-14-21-20-32l-7-17-3-6c-3 4-7 7-9 12-3 7-3 17-4 26h-1c-6-1-8-7-10-12-5-12-6-32-1-46 1-4 6-15 4-19-1-3-4-5-6-7l-7-12-10-30-9-13c-3-5-7-8-10-14-1-2-2-5 0-7l2-2c2-2 9 0 11 1 6 3 12 5 17 9l8 6h4c6 1 12 0 17 2 9 3 18 7 25 12 23 14 42 35 54 59 3 4 3 8 5 12l12 26c4 8 7 16 12 23 3 4 14 6 18 8l12 4 18 12c2 2 11 7 12 10Z" />
    <path fill="#FFF" d="m58 43-7 1 6 7 4 9v-1c3-1 4-4 4-8l-2-4-5-4Z" />
  </symbol>
  <!-- Tailwind CSS -->
  <symbol id="tailwindcss" viewBox="0 0 54 33" fill="none">
    <g clip-path="url(#tailwindcss__a)">
      <path
        fill="#38bdf8"
        fill-rule="evenodd"
        clip-rule="evenodd"
        d="M27 0c-7.2 0-11.7 3.6-13.5 10.8 2.7-3.6 5.85-4.95 9.45-4.05 2.054.513 3.522 2.004 5.147 3.653C30.744 13.09 33.808 16.2 40.5 16.2c7.2 0 11.7-3.6 13.5-10.8-2.7 3.6-5.85 4.95-9.45 4.05-2.054-.513-3.522-2.004-5.147-3.653C36.756 3.11 33.692 0 27 0zM13.5 16.2C6.3 16.2 1.8 19.8 0 27c2.7-3.6 5.85-4.95 9.45-4.05 2.054.514 3.522 2.004 5.147 3.653C17.244 29.29 20.308 32.4 27 32.4c7.2 0 11.7-3.6 13.5-10.8-2.7 3.6-5.85 4.95-9.45 4.05-2.054-.513-3.522-2.004-5.147-3.653C23.256 19.31 20.192 16.2 13.5 16.2z"
      />
    </g>

    <defs>
      <clipPath id="tailwindcss__a">
        <path fill="#fff" d="M0 0h54v32.4H0z" />
      </clipPath>
    </defs>
  </symbol>
  <!-- Redis -->
  <symbol id="redis" viewBox="0 0 256 220" preserveAspectRatio="xMidYMid">
    <path
      d="M246 169c-13.7 7-84.5 36.2-99.5 44-15.1 7.9-23.5 7.8-35.4 2.1C99.2 209.4 24 179 10.3 172.5 3.6 169.3 0 166.5 0 164v-26s98-21.3 113.9-27c15.8-5.6 21.3-5.8 34.8-.9 13.4 5 94 19.5 107.3 24.3V160c0 2.5-3 5.3-10 9"
      fill="#912626" />
    <path
      d="M246 143.2c-13.7 7.1-84.5 36.2-99.5 44-15.1 8-23.5 7.9-35.4 2.2-11.9-5.7-87.2-36.1-100.8-42.6-13.5-6.5-13.8-11-.5-16.2 13.4-5.2 88.2-34.6 104-40.3 16-5.6 21.4-5.8 34.9-1 13.4 5 83.8 33 97.1 37.9 13.3 4.9 13.8 8.9.2 16"
      fill="#C6302B" />
    <path
      d="M246 127c-13.7 7.2-84.5 36.3-99.5 44.2-15.1 7.8-23.5 7.7-35.4 2-11.9-5.6-87.2-36-100.8-42.6-6.7-3.2-10.3-6-10.3-8.5V96.2s98-21.3 113.9-27c15.8-5.7 21.3-5.9 34.8-1 13.4 5 94 19.5 107.3 24.4V118c0 2.5-3 5.4-10 9"
      fill="#912626" />
    <path
      d="M246 101.4c-13.7 7-84.5 36.2-99.5 44-15.1 7.9-23.5 7.8-35.4 2.1C99.2 141.8 24 111.4 10.3 105c-13.5-6.5-13.8-11-.5-16.1C23.2 83.5 98 54 113.8 48.5c16-5.7 21.4-6 34.9-1 13.4 5 83.8 33 97.1 37.8 13.3 5 13.8 9 .2 16"
      fill="#C6302B" />
    <path
      d="M246 83.7c-13.7 7-84.5 36.2-99.5 44-15.1 7.9-23.5 7.8-35.4 2.1C99.2 124.1 24 93.7 10.3 87.2 3.6 84 0 81.2 0 78.7v-26s98-21.3 113.9-27c15.8-5.6 21.3-5.8 34.8-.9 13.4 5 94 19.5 107.3 24.4v25.5c0 2.5-3 5.3-10 9"
      fill="#912626" />
    <path
      d="M246 58c-13.7 7-84.5 36.1-99.5 44-15.1 7.9-23.5 7.8-35.4 2C99.2 98.5 24 68 10.3 61.6c-13.5-6.5-13.8-11-.5-16.2C23.2 40.1 98 10.7 113.8 5c16-5.6 21.4-5.8 34.9-.9 13.4 5 83.8 33 97.1 37.8 13.3 4.9 13.8 9 .2 16"
      fill="#C6302B" />
    <path
      d="m159.3 32.8-22 2.2-5 11.9-8-13.2L99 31.4l19-6.9-5.8-10.5 17.8 7 16.7-5.5-4.5 10.9 17 6.4M131 90.3l-41-17 58.8-9.1-17.8 26M74 39.3c17.5 0 31.5 5.5 31.5 12.2 0 6.8-14 12.2-31.4 12.2s-31.5-5.4-31.5-12.2c0-6.7 14.1-12.2 31.5-12.2"
      fill="#FFF" />
    <path d="M185.3 36 220 49.8l-34.8 13.7V36" fill="#621B1C" />
    <path d="M146.8 51.2 185.3 36v27.5l-3.8 1.5-34.7-13.8" fill="#9A2928" />
  </symbol>
  <!-- RabbitMQ -->
  <symbol id="rabbitmq" viewBox="0 0 132.29167 132.29166">
    <g transform="translate(-76.200105,-115.62292)">
      <g transform="matrix(3.3139169,0,0,3.3139169,76.216727,114.23118)">
        <path
          d="M 39.42,17.37 H 26.65 a 1.59,1.59 0 0 1 -1.6,-1.6 V 3 A 1.59,1.59 0 0 0 23.45,1.41 H 18.67 A 1.59,1.59 0 0 0 17.07,3 v 12.77 a 1.59,1.59 0 0 1 -1.6,1.6 h -4.78 a 1.59,1.59 0 0 1 -1.6,-1.6 V 3 A 1.59,1.59 0 0 0 7.49,1.4 H 2.7 A 1.59,1.59 0 0 0 1.11,3 v 36.72 a 1.59,1.59 0 0 0 1.6,1.6 h 36.71 a 1.59,1.59 0 0 0 1.6,-1.6 V 19 a 1.59,1.59 0 0 0 -1.6,-1.63 z M 33,30.93 a 2.39,2.39 0 0 1 -2.39,2.4 h -3.2 a 2.39,2.39 0 0 1 -2.39,-2.4 v -3.19 a 2.39,2.39 0 0 1 2.39,-2.4 h 3.2 a 2.39,2.39 0 0 1 2.39,2.4 z"
          transform="translate(-1.11,-0.98)"
          fill="#ff6600"
        />
      </g>
    </g>
  </symbol>
  <!-- Mercado Pago -->
  <symbol id="mercado-pago" viewBox="0 0 150 104" fill="none">
    <path fill="#0A0080"
      d="M150 49.027c0-26.944-33.685-48.87-75-48.87-41.501 0-75 21.926-75 48.87v2.787c0 28.616 29.404 51.843 75 51.843 45.968 0 75-23.227 75-51.843v-2.787Z" />
    <path fill="#2ABCFF"
      d="M147.022 49.027c0 25.457-32.196 46.083-72.022 46.083-39.826 0-72.022-20.626-72.022-46.083C2.978 23.57 35.174 2.944 75 2.944c39.826.186 72.022 20.626 72.022 46.083Z" />
    <path fill="#fff"
      d="M50.993 34.533s-.745.743-.373 1.487c1.117 1.486 4.653 2.23 8.189 1.486 2.047-.557 4.839-2.601 7.444-4.645 2.792-2.23 5.583-4.46 8.56-5.389 2.979-.93 4.84-.558 6.142-.186 1.49.372 2.978 1.3 5.584 3.345 5.024 3.716 24.751 20.997 28.101 23.97 2.792-1.3 15.075-6.503 31.638-10.22-1.117-8.919-6.514-17.095-14.702-23.784-11.353 4.831-25.31 7.247-39.082.557 0 0-7.444-3.53-14.702-3.345-10.794.186-15.447 5.017-20.472 9.849l-6.327 6.875Z" />
    <path fill="#fff"
      d="M114.082 56.274c-.186-.186-23.263-20.44-28.474-24.342-2.978-2.23-4.653-2.788-6.514-3.16-.93-.185-2.233 0-3.163.372-2.42.744-5.584 2.788-8.375 5.017-2.978 2.416-5.77 4.46-8.189 5.017-3.163.93-7.258 0-9.119-1.114-.744-.558-1.303-1.115-1.489-1.673-.744-1.486.559-2.787.745-2.973l6.327-6.875 2.233-2.23c-2.047.186-3.908.743-5.769 1.3-2.233.558-4.466 1.302-6.7 1.302-.93 0-5.955-.744-6.885-1.115-5.77-1.487-10.794-3.16-18.425-6.69C11.166 25.8 5.211 34.161 3.536 43.452c1.303.372 3.35.93 4.28 1.115 20.472 4.46 26.8 9.291 28.102 10.22 1.303-1.3 2.978-2.23 5.025-2.23 2.233 0 4.28 1.115 5.583 2.974 1.117-.93 2.792-1.673 4.839-1.673.93 0 1.86.186 2.977.558a6.83 6.83 0 0 1 4.095 3.716c.744-.372 1.675-.557 2.791-.557 1.117 0 2.233.185 3.35.743 3.722 1.672 4.28 5.389 4.094 8.176h.745c4.466 0 8.189 3.716 8.189 8.176 0 1.3-.373 2.601-.931 3.902 1.303.743 4.28 2.23 7.072 1.858 2.233-.186 2.978-.929 3.35-1.486.186-.372.372-.558.186-.93l-5.77-6.503s-.93-.93-.558-1.3c.373-.372.93.185 1.303.557 2.978 2.415 6.514 6.132 6.514 6.132s.372.557 1.675.743c1.116.186 3.163 0 4.652-1.115.373-.372.745-.743.93-1.115 1.49-1.858-.185-3.716-.185-3.716l-6.7-7.619s-.93-.929-.558-1.3c.372-.372.93.185 1.302.557a253.206 253.206 0 0 1 8.003 7.619c.558.371 3.164 2.044 6.513-.186 2.048-1.301 2.42-2.973 2.42-4.274-.186-1.672-1.489-2.787-1.489-2.787l-9.305-9.291s-.93-.744-.558-1.301c.372-.372.93.186 1.302.557 2.978 2.416 10.98 9.663 10.98 9.663.186 0 2.792 2.044 6.328-.186 1.303-.743 2.047-1.858 2.047-3.345-.372-2.044-2.047-3.53-2.047-3.53Z" />
    <path fill="#fff"
      d="M69.417 67.98c-1.489 0-2.978.744-3.164.744-.186 0 0-.558.186-.93.186-.371 2.047-5.946-2.605-7.99-3.536-1.486-5.583.186-6.328.93-.186.185-.372.185-.372 0 0-.93-.558-3.717-3.536-4.646-4.28-1.3-7.072 1.672-7.816 2.787-.373-2.415-2.42-4.46-5.025-4.46a5 5 0 0 0-5.025 5.018 5 5 0 0 0 5.025 5.017c1.303 0 2.605-.558 3.536-1.487v.186c-.186 1.3-.559 5.76 4.094 7.619 1.861.743 3.536.186 4.839-.744.372-.371.372-.185.372.186-.186 1.115 0 3.717 3.536 5.017 2.605 1.115 4.28 0 5.21-.929.373-.371.56-.371.56.372.185 3.345 2.977 5.946 6.327 5.946 3.536 0 6.327-2.787 6.327-6.318.186-3.344-2.605-6.132-6.141-6.318Z" />
    <path fill="#0A0080"
      d="M115.012 53.858c-7.072-6.132-23.635-20.44-27.915-23.785-2.606-1.858-4.28-2.973-5.77-3.344-.744-.186-1.674-.372-2.791-.372s-2.42.186-3.536.558c-2.792.929-5.77 3.158-8.56 5.388l-.187.186c-2.605 2.044-5.21 4.088-7.258 4.646-.93.185-1.861.371-2.605.371-2.234 0-4.28-.743-5.025-1.672-.186-.186 0-.372.186-.744l6.141-7.06c4.839-4.832 9.492-9.477 20.1-9.663h.558c6.7 0 13.213 2.973 13.958 3.345 6.327 2.973 12.655 4.46 19.168 4.46 6.7 0 13.586-1.673 21.03-5.018-.744-.743-1.675-1.3-2.605-2.044-6.328 2.787-12.469 4.088-18.425 4.088-5.955 0-12.096-1.486-17.866-4.274-.372-.186-7.63-3.53-15.26-3.53h-.558c-8.933.186-13.958 3.344-17.308 6.132-3.35 0-6.142.929-8.747 1.672-2.233.558-4.28 1.115-6.142 1.115h-2.233c-2.233 0-13.213-2.787-21.96-6.132-.93.557-1.675 1.3-2.605 2.044 9.119 3.716 20.285 6.69 23.82 6.875.931 0 2.048.186 2.979.186 2.233 0 4.652-.557 6.885-1.3 1.303-.372 2.792-.744 4.28-1.116l-1.302 1.301-6.328 6.876c-.558.557-1.674 1.858-.93 3.53.372.743.93 1.3 1.675 1.858 1.489.93 4.28 1.673 6.7 1.673.93 0 1.86 0 2.605-.372 2.606-.557 5.397-2.787 8.375-5.203 2.42-1.858 5.77-4.274 8.188-5.017.745-.186 1.675-.372 2.234-.372h.558c1.675.186 3.35.744 6.328 2.973 5.21 3.903 28.287 24.157 28.473 24.343 0 0 1.489 1.3 1.303 3.344 0 1.115-.744 2.23-1.861 2.974-.93.557-2.047.929-2.978.929-1.488 0-2.605-.744-2.605-.744s-8.002-7.247-10.98-9.662c-.372-.372-.93-.744-1.303-.744-.186 0-.372.186-.558.372-.372.557 0 1.3.744 1.858l9.305 9.291s1.117 1.115 1.303 2.416c0 1.486-.744 2.787-2.233 3.902-1.117.743-2.233 1.115-3.35 1.115-1.489 0-2.42-.557-2.605-.743l-1.303-1.301c-2.42-2.416-4.839-4.831-6.7-6.318-.372-.371-.93-.743-1.303-.743-.186 0-.372 0-.558.186-.186.186-.372.743.186 1.3a2.3 2.3 0 0 0 .372.558l6.7 7.618s1.303 1.673.186 3.16l-.186.37-.558.558c-1.117.93-2.606 1.115-3.35 1.115h-.93c-.745-.186-1.117-.371-1.303-.557-.373-.372-3.722-3.902-6.514-6.132-.372-.372-.744-.743-1.303-.743-.186 0-.372 0-.558.185-.558.558.372 1.487.558 1.859l5.77 6.317s0 .186-.186.372c-.187.372-.931.93-2.978 1.3h-.745c-2.233 0-4.466-1.114-5.583-1.672.559-1.115.745-2.415.745-3.716 0-4.645-3.908-8.548-8.561-8.548h-.372c.186-2.23-.186-6.317-4.28-7.99-1.117-.557-2.42-.743-3.537-.743-.93 0-1.86.186-2.605.557-.93-1.672-2.233-2.973-4.28-3.53-1.117-.372-2.048-.558-3.164-.558-1.675 0-3.35.558-4.839 1.487-1.303-1.672-3.536-2.787-5.583-2.787-1.861 0-3.722.743-5.211 2.044-1.861-1.301-8.933-5.947-27.916-10.22-.93-.186-2.977-.744-4.28-1.115-.186 1.115-.372 2.044-.558 3.159 0 0 3.536.929 4.28.929 19.355 4.274 25.868 8.733 26.985 9.662a7.446 7.446 0 0 0-.558 2.787c0 4.089 3.35 7.247 7.258 7.247.372 0 .93 0 1.303-.185.558 2.973 2.605 5.203 5.397 6.317.93.372 1.675.558 2.605.558.558 0 1.117 0 1.675-.186.558 1.3 1.861 3.159 4.466 4.274.931.372 1.861.557 2.792.557.745 0 1.489-.185 2.233-.371 1.303 3.159 4.467 5.389 8.003 5.389 2.233 0 4.466-.93 6.141-2.602 1.303.743 4.28 2.23 7.258 2.23h1.117c2.978-.372 4.28-1.487 4.839-2.416.186-.186.186-.371.372-.557.744.186 1.489.371 2.233.371 1.675 0 3.164-.557 4.653-1.672 1.489-1.115 2.605-2.601 2.791-4.088.559.186 1.117.186 1.489.186 1.675 0 3.35-.558 4.839-1.487 2.977-2.044 3.536-4.46 3.536-6.132.558.186 1.116.186 1.675.186 1.489 0 2.977-.557 4.466-1.3a6.49 6.49 0 0 0 3.164-5.018c.186-1.486-.186-2.787-.931-4.088 5.025-2.23 16.378-6.318 29.963-9.29 0-1.116-.186-2.045-.372-3.16-16.191 2.974-28.288 8.176-31.452 9.477Z" />
  </symbol>
  <!-- Docker -->
  <symbol id="docker" viewBox="0 0 24 24" fill="#008fe2">
    <path
      d="M13.98 11.08h2.12a.19.19 0 0 0 .19-.19V9.01a.19.19 0 0 0-.19-.19h-2.12a.18.18 0 0 0-.18.18v1.9c0 .1.08.18.18.18m-2.95-5.43h2.12a.19.19 0 0 0 .18-.19V3.57a.19.19 0 0 0-.18-.18h-2.12a.18.18 0 0 0-.19.18v1.9c0 .1.09.18.19.18m0 2.71h2.12a.19.19 0 0 0 .18-.18V6.29a.19.19 0 0 0-.18-.18h-2.12a.18.18 0 0 0-.19.18v1.89c0 .1.09.18.19.18m-2.93 0h2.12a.19.19 0 0 0 .18-.18V6.29a.18.18 0 0 0-.18-.18H8.1a.18.18 0 0 0-.18.18v1.89c0 .1.08.18.18.18m-2.96 0h2.11a.19.19 0 0 0 .19-.18V6.29a.18.18 0 0 0-.19-.18H5.14a.19.19 0 0 0-.19.18v1.89c0 .1.08.18.19.18m5.89 2.72h2.12a.19.19 0 0 0 .18-.19V9.01a.19.19 0 0 0-.18-.19h-2.12a.18.18 0 0 0-.19.18v1.9c0 .1.09.18.19.18m-2.93 0h2.12a.18.18 0 0 0 .18-.19V9.01a.18.18 0 0 0-.18-.19H8.1a.18.18 0 0 0-.18.18v1.9c0 .1.08.18.18.18m-2.96 0h2.11a.18.18 0 0 0 .19-.19V9.01a.18.18 0 0 0-.18-.19H5.14a.19.19 0 0 0-.19.19v1.88c0 .1.08.19.19.19m-2.92 0h2.12a.18.18 0 0 0 .18-.19V9.01a.18.18 0 0 0-.18-.19H2.22a.18.18 0 0 0-.19.18v1.9c0 .1.08.18.19.18m21.54-1.19c-.06-.05-.67-.51-1.95-.51-.34 0-.68.03-1.01.09a3.77 3.77 0 0 0-1.72-2.57l-.34-.2-.23.33a4.6 4.6 0 0 0-.6 1.43c-.24.97-.1 1.88.4 2.66a4.7 4.7 0 0 1-1.75.42H.76a.75.75 0 0 0-.76.75 11.38 11.38 0 0 0 .7 4.06 6.03 6.03 0 0 0 2.4 3.12c1.18.73 3.1 1.14 5.28 1.14.98 0 1.96-.08 2.93-.26a12.25 12.25 0 0 0 3.82-1.4 10.5 10.5 0 0 0 2.61-2.13c1.25-1.42 2-3 2.55-4.4h.23c1.37 0 2.21-.55 2.68-1 .3-.3.55-.66.7-1.06l.1-.28Z" />
  </symbol>
  <!-- AWS -->
  <symbol id="aws" viewBox="0 0 16 16" fill="none">
    <path fill="#252F3E"
      d="M4.51 7.687c0 .197.02.357.058.475.042.117.096.245.17.384a.233.233 0 01.037.123c0 .053-.032.107-.1.16l-.336.224a.255.255 0 01-.138.048c-.054 0-.107-.026-.16-.074a1.652 1.652 0 01-.192-.251 4.137 4.137 0 01-.165-.315c-.415.491-.936.737-1.564.737-.447 0-.804-.129-1.064-.385-.261-.256-.394-.598-.394-1.025 0-.454.16-.822.484-1.1.325-.278.756-.416 1.304-.416.18 0 .367.016.564.042.197.027.4.07.612.118v-.39c0-.406-.085-.689-.25-.854-.17-.166-.458-.246-.868-.246-.186 0-.377.022-.574.07a4.23 4.23 0 00-.575.181 1.525 1.525 0 01-.186.07.326.326 0 01-.085.016c-.075 0-.112-.054-.112-.166v-.262c0-.085.01-.15.037-.186a.399.399 0 01.15-.113c.185-.096.409-.176.67-.24.26-.07.537-.101.83-.101.633 0 1.096.144 1.394.432.293.288.442.726.442 1.314v1.73h.01zm-2.161.811c.175 0 .356-.032.548-.096.191-.064.362-.182.505-.342a.848.848 0 00.181-.341c.032-.129.054-.283.054-.465V7.03a4.43 4.43 0 00-.49-.09 3.996 3.996 0 00-.5-.033c-.357 0-.618.07-.793.214-.176.144-.26.347-.26.614 0 .25.063.437.196.566.128.133.314.197.559.197zm4.273.577c-.096 0-.16-.016-.202-.054-.043-.032-.08-.106-.112-.208l-1.25-4.127a.938.938 0 01-.049-.214c0-.085.043-.133.128-.133h.522c.1 0 .17.016.207.053.043.032.075.107.107.208l.894 3.535.83-3.535c.026-.106.058-.176.1-.208a.365.365 0 01.214-.053h.425c.102 0 .17.016.213.053.043.032.08.107.101.208l.841 3.578.92-3.578a.458.458 0 01.107-.208.346.346 0 01.208-.053h.495c.085 0 .133.043.133.133 0 .027-.006.054-.01.086a.76.76 0 01-.038.133l-1.283 4.127c-.032.107-.069.177-.111.209a.34.34 0 01-.203.053h-.457c-.101 0-.17-.016-.213-.053-.043-.038-.08-.107-.101-.214L8.213 5.37l-.82 3.439c-.026.107-.058.176-.1.213-.043.038-.118.054-.213.054h-.458zm6.838.144a3.51 3.51 0 01-.82-.096c-.266-.064-.473-.134-.612-.214-.085-.048-.143-.101-.165-.15a.378.378 0 01-.031-.149v-.272c0-.112.042-.166.122-.166a.3.3 0 01.096.016c.032.011.08.032.133.054.18.08.378.144.585.187.213.042.42.064.633.064.336 0 .596-.059.777-.176a.575.575 0 00.277-.508.52.52 0 00-.144-.373c-.095-.102-.276-.193-.537-.278l-.772-.24c-.388-.123-.676-.305-.851-.545a1.275 1.275 0 01-.266-.774c0-.224.048-.422.143-.593.096-.17.224-.32.384-.438.16-.122.34-.213.553-.277.213-.064.436-.091.67-.091.118 0 .24.005.357.021.122.016.234.038.346.06.106.026.208.052.303.085.096.032.17.064.224.096a.46.46 0 01.16.133.289.289 0 01.047.176v.251c0 .112-.042.171-.122.171a.552.552 0 01-.202-.064 2.427 2.427 0 00-1.022-.208c-.303 0-.543.048-.708.15-.165.1-.25.256-.25.475 0 .149.053.277.16.379.106.101.303.202.585.293l.756.24c.383.123.66.294.825.513.165.219.244.47.244.748 0 .23-.047.437-.138.619a1.436 1.436 0 01-.388.47c-.165.133-.362.23-.591.299-.24.075-.49.112-.761.112z" />
    <g fill="#F90" fill-rule="evenodd" clip-rule="evenodd">
      <path
        d="M14.465 11.813c-1.75 1.297-4.294 1.986-6.481 1.986-3.065 0-5.827-1.137-7.913-3.027-.165-.15-.016-.353.18-.235 2.257 1.313 5.04 2.109 7.92 2.109 1.941 0 4.075-.406 6.039-1.239.293-.133.543.192.255.406z" />
      <path
        d="M15.194 10.98c-.223-.287-1.479-.138-2.048-.069-.17.022-.197-.128-.043-.24 1-.705 2.645-.502 2.836-.267.192.24-.053 1.89-.99 2.68-.143.123-.281.06-.218-.1.213-.53.687-1.72.463-2.003z" />
    </g>
  </symbol>
  <!-- GitHub -->
  <symbol id="github" viewBox="0 0 1024 1024" fill="none">
    <path fill-rule="evenodd" clip-rule="evenodd"
      d="M8 0C3.58 0 0 3.58 0 8C0 11.54 2.29 14.53 5.47 15.59C5.87 15.66 6.02 15.42 6.02 15.21C6.02 15.02 6.01 14.39 6.01 13.72C4 14.09 3.48 13.23 3.32 12.78C3.23 12.55 2.84 11.84 2.5 11.65C2.22 11.5 1.82 11.13 2.49 11.12C3.12 11.11 3.57 11.7 3.72 11.94C4.44 13.15 5.59 12.81 6.05 12.6C6.12 12.08 6.33 11.73 6.56 11.53C4.78 11.33 2.92 10.64 2.92 7.58C2.92 6.71 3.23 5.99 3.74 5.43C3.66 5.23 3.38 4.41 3.82 3.31C3.82 3.31 4.49 3.1 6.02 4.13C6.66 3.95 7.34 3.86 8.02 3.86C8.7 3.86 9.38 3.95 10.02 4.13C11.55 3.09 12.22 3.31 12.22 3.31C12.66 4.41 12.38 5.23 12.3 5.43C12.81 5.99 13.12 6.7 13.12 7.58C13.12 10.65 11.25 11.33 9.47 11.53C9.76 11.78 10.01 12.26 10.01 13.01C10.01 14.08 10 14.94 10 15.21C10 15.42 10.15 15.67 10.55 15.59C13.71 14.53 16 11.53 16 8C16 3.58 12.42 0 8 0Z"
      transform="scale(64)" fill="#ffff" />
  </symbol>
  <!-- Nginx -->
  <symbol id="nginx" viewBox="0 0 32 32">
    <path
      d="M15.948,2h.065a10.418,10.418,0,0,1,.972.528Q22.414,5.65,27.843,8.774a.792.792,0,0,1,.414.788c-.008,4.389,0,8.777-.005,13.164a.813.813,0,0,1-.356.507q-5.773,3.324-11.547,6.644a.587.587,0,0,1-.657.037Q9.912,26.6,4.143,23.274a.7.7,0,0,1-.4-.666q0-6.582,0-13.163a.693.693,0,0,1,.387-.67Q9.552,5.657,14.974,2.535c.322-.184.638-.379.974-.535"
      fill="#019639" />
    <path
      d="M8.767,10.538q0,5.429,0,10.859a1.509,1.509,0,0,0,.427,1.087,1.647,1.647,0,0,0,2.06.206,1.564,1.564,0,0,0,.685-1.293c0-2.62-.005-5.24,0-7.86q3.583,4.29,7.181,8.568a2.833,2.833,0,0,0,2.6.782,1.561,1.561,0,0,0,1.251-1.371q.008-5.541,0-11.081a1.582,1.582,0,0,0-3.152,0c0,2.662-.016,5.321,0,7.982-2.346-2.766-4.663-5.556-7-8.332A2.817,2.817,0,0,0,10.17,9.033,1.579,1.579,0,0,0,8.767,10.538Z"
      fill="#fff" />
  </symbol>
  <!-- Google Drive -->
  <symbol id="google-drive" viewBox="0 0 87.3 78">
    <path fill="#0066da"
      d="m6.6 66.85 3.85 6.65c.8 1.4 1.95 2.5 3.3 3.3L27.5 53H0c0 1.55.4 3.1 1.2 4.5z" />
    <path fill="#00ac47"
      d="M43.65 25 29.9 1.2c-1.35.8-2.5 1.9-3.3 3.3l-25.4 44A9.06 9.06 0 0 0 0 53h27.5z" />
    <path fill="#ea4335"
      d="M73.55 76.8c1.35-.8 2.5-1.9 3.3-3.3l1.6-2.75L86.1 57.5c.8-1.4 1.2-2.95 1.2-4.5H59.798l5.852 11.5z" />
    <path fill="#00832d" d="M43.65 25 57.4 1.2C56.05.4 54.5 0 52.9 0H34.4c-1.6 0-3.15.45-4.5 1.2z" />
    <path fill="#2684fc"
      d="M59.8 53H27.5L13.75 76.8c1.35.8 2.9 1.2 4.5 1.2h50.8c1.6 0 3.15-.45 4.5-1.2z" />
    <path fill="#ffba00"
      d="m73.4 26.5-12.7-22c-.8-1.4-1.95-2.5-3.3-3.3L43.65 25 59.8 53h27.45c0-1.55-.4-3.1-1.2-4.5z" />
  </symbol>
  <!-- System -->
  <symbol
    id="system"
    viewBox="0 0 24 24"
    fill="none"
    stroke="currentColor"
    stroke-width="2"
    stroke-linecap="round"
    stroke-linejoin="round"
  >
    <path stroke="none" d="M0 0h24v24H0z" fill="none" />
    <path d="M3 5a1 1 0 0 1 1 -1h16a1 1 0 0 1 1 1v10a1 1 0 0 1 -1 1h-16a1 1 0 0 1 -1 -1v-10" />
    <path d="M7 20h10" />
    <path d="M9 16v4" />
    <path d="M15 16v4" />
  </symbol>
  <!-- Light -->
  <symbol
    id="light"
    viewBox="0 0 24 24"
    fill="currentColor"
  >
    <path stroke="none" d="M0 0h24v24H0z" fill="none" />
    <path
      d="M12 19a1 1 0 0 1 .993 .883l.007 .117v1a1 1 0 0 1 -1.993 .117l-.007 -.117v-1a1 1 0 0 1 1 -1z" />
    <path
      d="M18.313 16.91l.094 .083l.7 .7a1 1 0 0 1 -1.32 1.497l-.094 -.083l-.7 -.7a1 1 0 0 1 1.218 -1.567l.102 .07z" />
    <path
      d="M7.007 16.993a1 1 0 0 1 .083 1.32l-.083 .094l-.7 .7a1 1 0 0 1 -1.497 -1.32l.083 -.094l.7 -.7a1 1 0 0 1 1.414 0z" />
    <path d="M4 11a1 1 0 0 1 .117 1.993l-.117 .007h-1a1 1 0 0 1 -.117 -1.993l.117 -.007h1z" />
    <path d="M21 11a1 1 0 0 1 .117 1.993l-.117 .007h-1a1 1 0 0 1 -.117 -1.993l.117 -.007h1z" />
    <path
      d="M6.213 4.81l.094 .083l.7 .7a1 1 0 0 1 -1.32 1.497l-.094 -.083l-.7 -.7a1 1 0 0 1 1.217 -1.567l.102 .07z" />
    <path
      d="M19.107 4.893a1 1 0 0 1 .083 1.32l-.083 .094l-.7 .7a1 1 0 0 1 -1.497 -1.32l.083 -.094l.7 -.7a1 1 0 0 1 1.414 0z" />
    <path
      d="M12 2a1 1 0 0 1 .993 .883l.007 .117v1a1 1 0 0 1 -1.993 .117l-.007 -.117v-1a1 1 0 0 1 1 -1z" />
    <path d="M12 7a5 5 0 1 1 -4.995 5.217l-.005 -.217l.005 -.217a5 5 0 0 1 4.995 -4.783z" />
  </symbol>
  <!-- Dark -->
  <symbol
    id="dark"
    viewBox="0 0 24 24"
    fill="none"
    stroke="currentColor"
    stroke-width="2"
    stroke-linecap="round"
    stroke-linejoin="round"
  >
    <path stroke="none" d="M0 0h24v24H0z" fill="none" />
    <path d="M12 3c.132 0 .263 0 .393 0a7.5 7.5 0 0 0 7.92 12.446a9 9 0 1 1 -8.313 -12.454l0 .008" />
  </symbol>
  <!-- Github no sólido -->
  <symbol
    id="social-github"
    viewBox="0 0 24 24"
    fill="none"
    stroke="currentColor"
    stroke-width="2"
    stroke-linecap="round"
    stroke-linejoin="round"
  >
    <path stroke="none" d="M0 0h24v24H0z" fill="none" />
    <path
      d="M9 19c-4.3 1.4 -4.3 -2.5 -6 -3m12 5v-3.5c0 -1 .1 -1.4 -.5 -2c2.8 -.3 5.5 -1.4 5.5 -6a4.6 4.6 0 0 0 -1.3 -3.2a4.2 4.2 0 0 0 -.1 -3.2s-1.1 -.3 -3.5 1.3a12.3 12.3 0 0 0 -6.2 0c-2.4 -1.6 -3.5 -1.3 -3.5 -1.3a4.2 4.2 0 0 0 -.1 3.2a4.6 4.6 0 0 0 -1.3 3.2c0 4.6 2.7 5.7 5.5 6c-.6 .6 -.6 1.2 -.5 2v3.5" />
  </symbol>
  <!-- LinkedIn -->
  <symbol
    id="linkedin"
    viewBox="0 0 24 24"
    fill="none"
    stroke="currentColor"
    stroke-width="2"
    stroke-linecap="round"
    stroke-linejoin="round"
  >
    <path stroke="none" d="M0 0h24v24H0z" fill="none" />
    <path d="M8 11v5" />
    <path d="M8 8v.01" />
    <path d="M12 16v-5" />
    <path d="M16 16v-3a2 2 0 1 0 -4 0" />
    <path d="M3 7a4 4 0 0 1 4 -4h10a4 4 0 0 1 4 4v10a4 4 0 0 1 -4 4h-10a4 4 0 0 1 -4 -4l0 -10" />
  </symbol>
  <!-- Instagram -->
  <symbol
    id="instagram"
    viewBox="0 0 24 24"
    fill="none"
    stroke="currentColor"
    stroke-width="2"
    stroke-linecap="round"
    stroke-linejoin="round"
  >
    <path stroke="none" d="M0 0h24v24H0z" fill="none" />
    <path d="M4 8a4 4 0 0 1 4 -4h8a4 4 0 0 1 4 4v8a4 4 0 0 1 -4 4h-8a4 4 0 0 1 -4 -4l0 -8" />
    <path d="M9 12a3 3 0 1 0 6 0a3 3 0 0 0 -6 0" />
    <path d="M16.5 7.5v.01" />
  </symbol>
  <symbol
    id="graduation-cap"
    viewBox="0 0 24 24"
    fill="none"
    stroke="currentColor"
    stroke-width="2"
    stroke-linecap="round"
    stroke-linejoin="round"
  >
    <path stroke="none" d="M0 0h24v24H0z" fill="none" />
    <path d="M22 9l-10 -4l-10 4l10 4l10 -4v6" />
    <path d="M6 10.6v5.4a6 3 0 0 0 12 0v-5.4" />
  </symbol>
  <!-- Argentina -->
  <symbol id="flag-ar" viewBox="0 0 640 480">
    <path fill="#74acdf" d="M0 0h640v480H0z" />
    <path fill="#fff" d="M0 160h640v160H0z" />

    <g id="ar-flag-sun" transform="translate(-64)scale(.96)">
      <path id="ar-flag-ray-a" fill="#f6b40e" stroke="#85340a" stroke-width="1.1"
        d="m396.8 251.3 28.5 62s.5 1.2 1.3.9c.8-.4.3-1.6.3-1.6l-23.7-64m-.7 24.2c-.4 9.4 5.4 14.6 4.7 23s3.8 13.2 5 16.5c1 3.3-1.2 5.2-.3 5.7 1 .5 3-2.1 2.4-6.8s-4.2-6-3.4-16.3-4.2-12.7-3-22" />
      <use href="#ar-flag-ray-a" transform="rotate(22.5 400 250)" />
      <use href="#ar-flag-ray-a" transform="rotate(45 400 250)" />
      <use href="#ar-flag-ray-a" transform="rotate(67.5 400 250)" />
    </g>

    <use href="#ar-flag-sun" transform="rotate(90 320 240)" />
    <use href="#ar-flag-sun" transform="rotate(180 320 240)" />
    <use href="#ar-flag-sun" transform="rotate(-90 320 240)" />

    <circle cx="320" cy="240" r="26.7" fill="#f6b40e" stroke="#85340a" stroke-width="1.4" />
  </symbol>
  <!-- United States -->
  <symbol id="flag-us" viewBox="0 0 640 480">
    <path fill="#bd3d44" d="M0 0h640v480H0" />
    <path stroke="#fff" stroke-width="37"
      d="M0 55.3h640M0 129h640M0 203h640M0 277h640M0 351h640M0 425h640" />
    <path fill="#192f5d" d="M0 0h364.8v258.5H0" />

    <defs>
      <marker id="us-flag-star" markerHeight="30" markerWidth="30">
        <path fill="#fff" d="m14 0 9 27L0 10h28L5 27z" />
      </marker>
    </defs>

    <path
      fill="none"
      marker-mid="url(#us-flag-star)"
      d="m0 0 16 11h61 61 61 61 60L47 37h61 61 60 61L16 63h61 61 61 61 60L47 89h61 61 60 61L16 115h61 61 61 61 60L47 141h61 61 60 61L16 166h61 61 61 61 60L47 192h61 61 60 61L16 218h61 61 61 61 60z"
    />
  </symbol>

</svg>